<?xml version="1.0" encoding="UTF-8" standalone="no"?><!-- Generator: Gravit.io --><svg xmlns="http://www.w3.org/2000/svg" xmlns:xlink="http://www.w3.org/1999/xlink" style="isolation:isolate" viewBox="0 0 2500 2445" width="2500pt" height="2445pt"><defs><clipPath id="_clipPath_9e4thNu8gTgfSPiWaCk7sfs1fgS4jous"><rect width="2500" height="2445"/></clipPath></defs><g clip-path="url(#_clipPath_9e4thNu8gTgfSPiWaCk7sfs1fgS4jous)"><path d=" M 2500.007 469.437 C 2500.007 210.352 2289.568 0.008 2030.484 0.008 L 469.529 0.008 C 210.447 0.008 0.008 210.352 0.008 469.437 L 0.008 1975.558 C 0.008 2234.575 210.447 2444.988 469.531 2444.988 L 2030.485 2444.988 C 2289.569 2444.988 2500.008 2234.575 2500.008 1975.558 L 2500.007 469.437 Z " fill-rule="evenodd" fill="none"/><path d=" M 0.093 1518.95 L 1248.692 1518.95 L 1248.692 2444.987 L 0.094 2444.987 L 0.093 1518.95 Z " fill-rule="evenodd" fill="none"/><g><g><path d=" M 1136.204 1618.366 L 934.848 1618.165 L 934.848 1377.4 C 934.848 1325.957 954.803 1299.183 998.825 1293.066 L 1136.205 1293.066 C 1234.176 1293.066 1297.552 1354.837 1297.552 1454.813 C 1297.552 1557.498 1235.78 1618.267 1136.205 1618.366 L 1136.204 1618.366 Z  M 934.848 968.969 L 934.848 905.593 C 934.848 850.14 958.312 823.767 1009.755 820.358 L 1112.84 820.358 C 1201.185 820.358 1254.131 873.204 1254.131 961.749 C 1254.131 1029.136 1217.831 1107.854 1116.049 1107.854 L 934.848 1107.854 L 934.848 968.969 Z  M 1393.316 1209.234 L 1356.916 1188.778 L 1388.704 1161.602 C 1425.706 1129.814 1487.678 1058.316 1487.678 934.974 C 1487.678 746.052 1341.172 624.214 1114.444 624.214 L 855.728 624.214 L 855.728 624.114 L 826.247 624.114 C 759.061 626.621 705.212 681.273 704.51 748.86 L 704.51 1820.827 L 1119.559 1820.827 C 1371.557 1820.827 1534.206 1683.647 1534.206 1471.159 C 1534.206 1356.742 1481.661 1258.971 1393.316 1209.234 Z " fill="rgb(255,255,255)"/><path d=" M 1642.301 1672.745 C 1642.301 1590.857 1708.347 1524.606 1789.72 1524.606 C 1871.299 1524.606 1937.654 1590.857 1937.654 1672.745 C 1937.654 1754.531 1871.299 1820.885 1789.719 1820.885 C 1708.347 1820.885 1642.301 1754.531 1642.301 1672.745" fill="rgb(0,186,252)"/></g></g></g></svg>